<svg
  width="20"
  height="21"
  viewBox="0 0 20 21"
  fill="none"
  xmlns="http://www.w3.org/2000/svg"
>
  <path
    d="M10 0.5C8.02219 0.5 6.0888 1.08649 4.4443 2.1853C2.79981 3.28412 1.51809 4.84591 0.761209 6.67317C0.00433292 8.50043 -0.193701 10.5111 0.192152 12.4509C0.578004 14.3907 1.53041 16.1725 2.92894 17.5711C4.32746 18.9696 6.10929 19.922 8.0491 20.3079C9.98891 20.6937 11.9996 20.4957 13.8268 19.7388C15.6541 18.9819 17.2159 17.7002 18.3147 16.0557C19.4135 14.4112 20 12.4778 20 10.5C20 7.84784 18.9464 5.3043 17.0711 3.42893C15.1957 1.55357 12.6522 0.5 10 0.5ZM10 19.0714C8.30474 19.0714 6.64754 18.5687 5.23798 17.6269C3.82841 16.685 2.72979 15.3464 2.08104 13.7801C1.43229 12.2139 1.26254 10.4905 1.59327 8.8278C1.924 7.16511 2.74035 5.63782 3.93909 4.43909C5.13783 3.24035 6.66511 2.424 8.3278 2.09327C9.9905 1.76254 11.7139 1.93228 13.2802 2.58103C14.8464 3.22978 16.185 4.32841 17.1269 5.73797C18.0687 7.14754 18.5714 8.80473 18.5714 10.5C18.5714 12.7733 17.6684 14.9535 16.0609 16.5609C14.4535 18.1684 12.2733 19.0714 10 19.0714ZM14 7.51429L11.0143 10.5L14 13.4857L12.9857 14.5L10 11.5143L7.01429 14.5L6.00001 13.4857L8.98572 10.5L6.00001 7.51429L7.01429 6.5L10 9.48572L12.9857 6.5L14 7.51429Z"
    fill="#E02B2B"
  />
</svg>
