<svg
  width="20"
  height="21"
  viewBox="0 0 20 21"
  fill="none"
  xmlns="http://www.w3.org/2000/svg"
>
  <path
    d="M10 0.5C4.42857 0.5 0 4.92857 0 10.5C0 16.0714 4.42857 20.5 10 20.5C15.5714 20.5 20 16.0714 20 10.5C20 4.92857 15.5714 0.5 10 0.5ZM10 19.0714C5.28572 19.0714 1.42857 15.2143 1.42857 10.5C1.42857 5.78572 5.28572 1.92857 10 1.92857C14.7143 1.92857 18.5714 5.78572 18.5714 10.5C18.5714 15.2143 14.7143 19.0714 10 19.0714ZM14.4286 6.92857L15.4286 7.92857L9.42857 14.0714L8.42857 13.0714L5.57143 10.2143L6.57143 9.07143L9.42857 11.9286L14.4286 6.92857Z"
    fill="#2C852C"
  />
</svg>
