<svg
  width="20"
  height="21"
  viewBox="0 0 20 21"
  fill="none"
  xmlns="http://www.w3.org/2000/svg"
>
  <path
    d="M10 0.5C8.02219 0.5 6.0888 1.08649 4.4443 2.1853C2.79981 3.28412 1.51809 4.84591 0.761209 6.67317C0.00433292 8.50043 -0.193701 10.5111 0.192152 12.4509C0.578004 14.3907 1.53041 16.1725 2.92894 17.5711C4.32746 18.9696 6.10929 19.922 8.0491 20.3079C9.98891 20.6937 11.9996 20.4957 13.8268 19.7388C15.6541 18.9819 17.2159 17.7002 18.3147 16.0557C19.4135 14.4112 20 12.4778 20 10.5C20 7.84784 18.9464 5.3043 17.0711 3.42893C15.1957 1.55357 12.6522 0.5 10 0.5ZM10 1.92857C11.6953 1.92857 13.3525 2.43128 14.762 3.37312C16.1716 4.31496 17.2702 5.65363 17.919 7.21986C18.5677 8.78608 18.7375 10.5095 18.4067 12.1722C18.076 13.8349 17.2597 15.3622 16.0609 16.5609C14.8622 17.7597 13.3349 18.576 11.6722 18.9067C10.0095 19.2375 8.28609 19.0677 6.71986 18.419C5.15364 17.7702 3.81496 16.6716 2.87312 15.262C1.93128 13.8525 1.42858 12.1953 1.42858 10.5C1.42858 8.22672 2.33163 6.04654 3.93909 4.43909C5.54655 2.83163 7.72672 1.92857 10 1.92857ZM10.7 13.3571V4.78572H9.27144V13.3571H10.7ZM9.27144 14.7857V16.2143H10.7V14.7857H9.27144Z"
    fill="#FF7E00"
  />
</svg>
